<svg width="14" height="15" viewBox="0 0 14 15" fill="none" xmlns="http://www.w3.org/2000/svg">
<path fill-rule="evenodd" clip-rule="evenodd" d="M12.5385 5.90747C12.5385 5.23054 11.9847 4.6767 11.3077 4.6767H11.0923C10.9385 2.58439 9.18465 0.922852 7.03081 0.922852C4.87696 0.922852 3.15388 2.58439 2.96927 4.6767H2.69235C2.01542 4.6767 1.46158 5.23054 1.46158 5.90747L0.846191 13.5998C0.846191 14.2767 1.40004 14.8305 2.07696 14.8305H11.9231C12.6 14.8305 13.1539 14.2767 13.1539 13.5998L12.5385 5.90747ZM8.78465 8.36901H5.21542C4.69235 8.36901 4.29235 7.93824 4.29235 7.44593C4.29235 6.95362 4.72311 6.52285 5.21542 6.52285H8.81542C9.3385 6.52285 9.7385 6.95362 9.7385 7.44593C9.7385 7.93824 9.30773 8.36901 8.78465 8.36901ZM7.03081 2.76901C8.16927 2.76901 9.09235 3.59977 9.24619 4.6767H4.81542C5.00004 3.59977 5.92311 2.76901 7.03081 2.76901Z" fill="#F7A452"/>
</svg>
