<svg width="16" height="15" viewBox="0 0 16 15" fill="none" xmlns="http://www.w3.org/2000/svg">
<path fill-rule="evenodd" clip-rule="evenodd" d="M7.99985 0.115234C3.93831 0.115234 0.615234 3.43831 0.615234 7.49985C0.615234 11.5614 3.93831 14.8845 7.99985 14.8845C12.0614 14.8845 15.3845 11.5614 15.3845 7.49985C15.3845 3.43831 12.0614 0.115234 7.99985 0.115234ZM7.99985 12.9152C5.01523 12.9152 2.58447 10.4845 2.58447 7.49985C2.58447 4.51523 5.01523 2.08447 7.99985 2.08447C10.9845 2.08447 13.4152 4.51523 13.4152 7.49985C13.4152 10.4845 10.9845 12.9152 7.99985 12.9152ZM7.99985 10.946C9.90311 10.946 11.446 9.40311 11.446 7.49985C11.446 5.59659 9.90311 4.0537 7.99985 4.0537C6.09659 4.0537 4.5537 5.59659 4.5537 7.49985C4.5537 9.40311 6.09659 10.946 7.99985 10.946Z" fill="#1C8EFF"/>
</svg>
