<svg width="16" height="13" viewBox="0 0 16 13" fill="none" xmlns="http://www.w3.org/2000/svg">
<path fill-rule="evenodd" clip-rule="evenodd" d="M2.92308 8.96158H6.92308C7.16923 8.96158 7.38461 8.74619 7.38461 8.50004V1.26927C7.38461 0.746191 6.83077 0.346191 6.4 0.346191H2.92308C2.67692 0.346191 2.46154 0.561576 2.46154 0.80773V8.50004C2.46154 8.74619 2.67692 8.96158 2.92308 8.96158ZM15.1385 1.76158C14.9538 1.70004 14.7692 1.85388 14.7692 2.06927V9.73081C14.7692 9.97696 14.5538 10.1923 14.3077 10.1923H1.69231C1.44615 10.1923 1.23077 9.97696 1.23077 9.73081V2.10004C1.23077 1.88465 0.984615 1.73081 0.8 1.82311C0.338462 2.0385 0 2.53081 0 3.11542V10.1923C0 10.8693 0.553846 11.4231 1.23077 11.4231H6.30769C6.55385 11.4231 6.76923 11.6385 6.76923 11.8847C6.76923 12.1308 6.98462 12.3462 7.23077 12.3462H8.76923C9.01538 12.3462 9.23077 12.1308 9.23077 11.8847C9.23077 11.6385 9.44615 11.4231 9.69231 11.4231H14.7692C15.4462 11.4231 16 10.8693 16 10.1923V3.11542C16 2.46927 15.7846 1.91542 15.1385 1.76158ZM9.07692 8.96158H13.0769C13.3231 8.96158 13.5385 8.74619 13.5385 8.50004V0.80773C13.5385 0.561576 13.3231 0.346191 13.0769 0.346191H9.6C9.13846 0.346191 8.61539 0.746191 8.61539 1.26927V8.50004C8.61539 8.74619 8.83077 8.96158 9.07692 8.96158Z" fill="#4BCA8D"/>
</svg>
