<svg width="16" height="16" viewBox="0 0 16 16" fill="none" xmlns="http://www.w3.org/2000/svg">
<path fill-rule="evenodd" clip-rule="evenodd" d="M7.99985 0.615234C3.93831 0.615234 0.615234 3.93831 0.615234 7.99985C0.615234 12.0614 3.93831 15.3845 7.99985 15.3845C12.0614 15.3845 15.3845 12.0614 15.3845 7.99985C15.3845 3.93831 12.0614 0.615234 7.99985 0.615234ZM7.99985 13.4152C5.01523 13.4152 2.58447 10.9845 2.58447 7.99985C2.58447 5.01523 5.01523 2.58447 7.99985 2.58447C10.9845 2.58447 13.4152 5.01523 13.4152 7.99985C13.4152 10.9845 10.9845 13.4152 7.99985 13.4152ZM7.99985 11.446C9.90311 11.446 11.446 9.90311 11.446 7.99985C11.446 6.09659 9.90311 4.5537 7.99985 4.5537C6.09659 4.5537 4.5537 6.09659 4.5537 7.99985C4.5537 9.90311 6.09659 11.446 7.99985 11.446Z" fill="#D4504C"/>
</svg>
