<svg width="16" height="17" viewBox="0 0 16 17" fill="none" xmlns="http://www.w3.org/2000/svg">
<path fill-rule="evenodd" clip-rule="evenodd" d="M14.9233 2.86908C10.0002 5.4537 10.554 0.161388 4.61557 2.22293C4.43096 2.28447 4.30788 2.46908 4.30788 2.6537V9.82293C4.30788 10.0383 4.52326 10.1922 4.70788 10.0998C10.6156 8.13062 10.0002 13.546 15.1386 10.6537C15.2925 10.5614 15.3848 10.4075 15.3848 10.2537V3.11523C15.3848 2.89985 15.1386 2.746 14.9233 2.86908ZM3.07711 1.57677C3.07711 1.33062 2.86173 1.11523 2.61557 1.11523H1.6925C1.44634 1.11523 1.23096 1.33062 1.23096 1.57677V15.4229C1.23096 15.6691 1.44634 15.8845 1.6925 15.8845H2.61557C2.86173 15.8845 3.07711 15.6691 3.07711 15.4229V1.57677Z" fill="#4BCA8D"/>
</svg>
