<svg width="16" height="12" viewBox="0 0 16 12" fill="none" xmlns="http://www.w3.org/2000/svg">
<path fill-rule="evenodd" clip-rule="evenodd" d="M10.7692 0.576923C10.2462 0.576923 9.75385 0.638462 9.29231 0.792308C9.84615 1.25385 10.3385 1.80769 10.7385 2.42308H10.7692C12.6462 2.42308 14.1538 3.93077 14.1538 5.80769C14.1538 7.68462 12.6462 9.19231 10.7692 9.19231C10.3077 9.19231 9.84615 9.1 9.44615 8.91538C9.69231 8.57692 9.90769 8.20769 10.0615 7.83846C10.1231 7.68462 10.1846 7.56154 10.2154 7.40769C10.3692 6.91538 10.4615 6.36154 10.4615 5.80769C10.4615 2.91538 8.12308 0.576923 5.23077 0.576923C2.33846 0.576923 0 2.91538 0 5.80769C0 8.7 2.33846 11.0385 5.23077 11.0385C5.75385 11.0385 6.24615 10.9769 6.70769 10.8231C6.15385 10.3615 5.66154 9.80769 5.26154 9.19231H5.23077C3.35385 9.19231 1.84615 7.68462 1.84615 5.80769C1.84615 3.93077 3.35385 2.42308 5.23077 2.42308C5.69231 2.42308 6.15385 2.51538 6.58462 2.7C5.93846 3.56154 5.53846 4.63846 5.53846 5.80769C5.53846 8.7 7.87692 11.0385 10.7692 11.0385C13.6615 11.0385 16 8.7 16 5.80769C16 2.91538 13.6615 0.576923 10.7692 0.576923Z" fill="#1C8EFF"/>
</svg>
